<!DOCTYPE svg PUBLIC "-//W3C//DTD SVG 1.1//EN" "http://www.w3.org/Graphics/SVG/1.1/DTD/svg11.dtd">
<!-- Uploaded to: SVG Repo, www.svgrepo.com, Transformed by: SVG Repo Mixer Tools -->
<svg height="800px" width="800px" version="1.1" id="Layer_1" xmlns="http://www.w3.org/2000/svg" xmlns:xlink="http://www.w3.org/1999/xlink" viewBox="0 0 511.2 511.2" xml:space="preserve" fill="#000000" stroke="#000000">
<g id="SVGRepo_bgCarrier" stroke-width="0"/>
<g id="SVGRepo_tracerCarrier" stroke-linecap="round" stroke-linejoin="round"/>
<g id="SVGRepo_iconCarrier"> <path style="fill:#895129;" d="M435.6,229.6c0-8.8,3.2-17.2,8.8-23.2c0.4-0.8,1.2-1.2,2-2l0,0c6-2.8,20-10,26.8-10.4l0,0 c1.2,0,2.4,0,3.6,0.4c9.2,2.4,24.8,14.8,28.8,22.8c0,0,0,0.4,0.4,0.4c0,0,0,0,0,0.4c1.6,4,2,8,2,12.4c0,14-8,26.4-20,32v5.6 c-4.8,18.4,2.8,57.6-6.8,74.4l0,0c-0.8,0.8-1.6,2-2.4,2.8l0,0c-4.4,3.6-13.2,6.4-25.2,8.8h-17.2h-40h-322 c-19.6-1.6-32.4-3.6-34.8-4.8c-11.2-6.8-14.4-34.4-15.6-56.4v-30.4c0,0-17.6-19.2-19.6-32l0,0c0,0,0,0,0-0.4c0-2,0-3.6,0.4-5.6l0,0 l0,0c3.6-7.6,19.6-28,28-29.6c4.8-0.8,17.6,2,26.4,4.8c3.2,2,6,4.4,8.4,7.2c5.6,6.4,8.8,14.4,8.8,23.6v48v4v20c0,4.4,3.6,8,8,8h164 c4.4,0,8-3.6,8-8c0,4.4,3.6,8,8,8h164c4.4,0,8-3.6,8-8v-20v-4L435.6,229.6L435.6,229.6z"/> <g> <path style="fill:#BD8150;" d="M272.4,269.6c-4.8,0-9.2-2.4-12.4-6c-0.4-0.4-0.4-0.4-0.8-0.8c-2-2.8-3.2-6-3.2-9.2h-0.8 c0,2.8-0.8,5.2-2,7.2c-3.2,0.4-4.4,2.8-4.4,5.2c-2.8,2-6,3.6-10,3.6h-156c-4.4,0-8,3.6-8,8v-48c0-8.8-3.2-17.2-8.8-23.6l0.8-0.4v-4 v-42l4-20.4c3.2-3.6,7.6-5.6,12.4-5.6h156c2,0,4,0.4,6,1.2c1.6,1.6,4.8,4.4,7.2,6c1.6,2.4,2.4,5.6,2.4,8.8h0.4 c0-8.8,7.6-16,16.4-16h156c5.2,0,10,2.4,12.4,6.8l2.8,16v49.2l0.8,0.8c-5.6,6.4-8.8,14.4-8.8,23.2v48c0-4.4-3.6-8-8-8H272.4z"/> <path style="fill:#BD8150;" d="M255.6,301.6c0,4.4-3.6,8-8,8h-164c-4.4,0-8-3.6-8-8v-20v-4c0-4.4,3.6-8,8-8h156h8 c1.2,0,2.4,0.4,3.6,0.8c0.4,0.8,1.6,1.2,2.4,2c1.2,1.6,2,3.2,2,5.2V301.6z"/> </g> <path style="fill:#554542;" d="M456.4,353.6h-3.2H436h-40H74H56.4H43.6v16c0,4.4,4.4,8,8.8,8h408c4.4,0,7.2-3.6,7.2-8v-16H456.4z"/> <path style="fill:#BD8150;" d="M427.6,269.6c4.4,0,8,3.6,8,8v4v20c0,4.4-3.6,8-8,8h-164c-4.4,0-8-3.6-8-8v-24c0-2,0.8-3.6,2-5.2 c1.6-0.4,2.4-1.2,3.2-2.4c0.8-0.4,2-0.8,3.2-0.8h8.8h154.8V269.6z"/> <path d="M460.4,381.6h-408c-6.8,0-12.8-5.6-12.8-12v-16c0-2.4,1.6-4,4-4s4,1.6,4,4v16c0,2,2.4,4,4.8,4h408c2.4,0,3.2-2,3.2-4v-16 c0-2.4,1.6-4,4-4s4,1.6,4,4v16C471.6,376.4,466.8,381.6,460.4,381.6z"/> <path d="M487.6,325.6c-2.4,0-4-1.6-4-4v-60c0-1.6,0.8-2.8,2.4-3.6c11.2-5.6,18-16.4,18-28.8c0-3.6-0.8-7.6-2-10.8c0,0,0,0,0-0.4 c-4-11.2-14-18.8-25.6-20.4c-1.2,0-2-0.4-3.2-0.4h-0.4c-0.4,0-0.4,0-0.8,0c-8.8,0-16.8,3.2-22.8,9.6l-0.4,0.4 c-0.4,0.4-0.8,0.8-1.2,1.6c-5.2,6-8,13.2-8,20.8v48c0,2.4-1.6,4-4,4s-4-1.6-4-4v-48c0-9.6,3.6-18.8,9.6-26c0.8-0.8,1.2-1.6,2-2.4 l0.4-0.4c7.6-7.6,17.6-11.6,28-11.6c0.4,0,0.8,0,1.2,0c1.6,0,2.8,0,4,0.4c14.4,2,26.8,11.6,32,25.6c0,0,0,0,0,0.4l0,0 c1.6,4.4,2.4,8.8,2.4,13.6c0,14.4-7.6,27.6-20,34.8v57.2C491.6,324,490,325.6,487.6,325.6z"/> <path d="M395.6,357.6H56.4c-20,0-36.8-16.4-36.8-36v-57.2C7.6,257.6,0,244.4,0,230c0-2.4,0-4.4,0.4-6.4l0,0 c2.4-16.4,14.8-29.6,31.2-33.2c10-2,20.8-0.4,29.2,5.2c3.6,2,6.8,4.8,9.2,8c6,7.2,9.6,16.4,9.6,26v48c0,2.4-1.6,4-4,4s-4-1.6-4-4 v-48c0-7.6-2.8-15.2-7.6-20.8c-2-2.4-4.8-4.8-7.6-6.4c-6.8-4.4-15.2-6-23.2-4c-12.8,2.8-22.8,13.2-24.8,26.4c0,0,0,0,0,0.4 C8,226.8,8,228.4,8,230c0,12.4,6.8,23.2,17.6,28.8c1.2,0.8,2.4,2,2.4,3.6v60c0,15.2,13.2,28,28.8,28H396c2.4,0,4,1.6,4,4 S398,357.6,395.6,357.6z"/> <path d="M456.4,357.6h-20.8c-2.4,0-4-1.6-4-4s1.6-4,4-4h20.8c7.2,0,14-2.8,19.2-7.6c0,0,0,0,0.4-0.4c0.8-0.8,1.2-1.6,2-2 c0,0,0,0,0-0.4c4-4.8,6.4-11.2,6.4-17.6c0-2.4,1.6-4,4-4s4,1.6,4,4c0,8.4-2.8,16.4-8,22.8l0,0l0,0c-0.8,1.2-1.6,2-2.8,2.8l-0.4,0.4 C473.6,354.4,465.2,357.6,456.4,357.6z"/> <path d="M255.6,281.6c-2.4,0-4-1.6-4-4c0-1.2-0.4-2-0.8-2.4c-1.6-1.6-1.6-4,0-5.6s4-1.6,5.6,0c2,2,3.2,5.2,3.2,8 C259.6,280,258,281.6,255.6,281.6z"/> <path d="M247.6,313.6h-164c-6.8,0-12-5.2-12-12v-24c0-6.8,5.2-12,12-12h164c2,0,3.6,0.4,5.2,1.2c2,0.8,2.8,3.2,1.6,5.2 s-3.2,2.8-5.2,1.6c-0.4-0.4-1.2-0.4-1.6-0.4h-164c-2.4,0-4,1.6-4,4v24c0,2.4,1.6,4,4,4h164c2.4,0,4-1.6,4-4s1.6-4,4-4s4,1.6,4,4 C259.6,308.4,254.4,313.6,247.6,313.6z"/> <path d="M427.6,313.6h-164c-6.8,0-12-5.2-12-12v-24c0-2.8,0.8-5.6,2.8-7.6c0.8-0.8,1.6-1.2,2.4-1.6c0.4-0.8,1.2-1.6,2-2 c1.6-0.8,3.2-0.8,4.8-0.8h164c6.8,0,12,5.2,12,12v24C439.6,308.4,434.4,313.6,427.6,313.6z M261.2,274c0,0.4-0.4,0.8-0.4,0.8 c-0.4,0.8-0.8,1.6-0.8,2.4v24c0,2.4,1.6,4,4,4h164c2.4,0,4-1.6,4-4v-24c0-2.4-1.6-4-4-4H264c-0.4,0-1.2,0-1.6,0.4 C261.6,274,261.6,274,261.2,274z"/> <path d="M239.6,273.6c-2.4,0-4-1.6-4-4s1.6-4,4-4c2.8,0,5.2-0.8,7.2-2.4c1.6-1.2,2.4-2.4,3.2-4s1.2-3.6,1.2-5.6v-56c0-2.4,1.6-4,4-4 s4,1.6,4,4v56c0,3.2-0.8,6.4-2.4,9.2c-1.2,2.4-3.2,4.8-5.6,6.4C248.4,272,244,273.6,239.6,273.6z"/> <path d="M67.6,209.6c-2.4,0-4-1.6-4-4v-56c0-4.8,2-9.6,5.2-13.2c4-4.4,9.6-6.8,15.6-6.8h156c2.4,0,5.2,0.4,7.2,1.6 c3.6,1.6,6.8,4,8.8,7.6c2,3.2,3.2,7.2,3.2,10.8v8c0,2.4-1.6,4-4,4s-4-1.6-4-4v-8c0-2.4-0.8-4.8-2-6.8s-3.2-3.6-5.2-4.4 c-1.2-0.4-2.8-0.8-4.4-0.8H84c-3.6,0-7.2,1.6-9.6,4.4c-2,2.4-3.2,4.8-3.2,7.6v56C71.6,208,70,209.6,67.6,209.6z"/> <path d="M443.6,209.6c-2.4,0-4-1.6-4-4v-56c0-2.4-0.8-5.2-2-7.2c-2-3.2-5.6-4.8-9.2-4.8h-156c-6.8,0-12.4,5.6-12.4,12 c0,2.4-1.6,4-4,4s-4-1.6-4-4c0-10.8,9.2-20,20.4-20h156c6.4,0,12.4,3.2,16,8.4c2.4,3.2,3.6,7.2,3.6,11.6v56 C447.6,208,446,209.6,443.6,209.6z"/> <path d="M272.4,273.6c-6,0-11.6-2.8-15.2-7.2c-0.4-0.4-0.4-0.8-0.8-0.8c-2.8-3.6-4-7.6-4-12c0-2.4,1.6-4,4-4s4,1.6,4,4 c0,2.4,0.8,4.8,2.4,7.2c0,0,0.4,0.4,0.8,0.8c2,2.4,5.6,4,9.2,4c2.4,0,4,1.6,4,4S274.4,273.6,272.4,273.6z"/> <path d="M423.6,157.6h-28c-2.4,0-4-1.6-4-4s1.6-4,4-4h28c2.4,0,4,1.6,4,4S426,157.6,423.6,157.6z"/> <path d="M379.6,157.6h-16c-2.4,0-4-1.6-4-4s1.6-4,4-4h16c2.4,0,4,1.6,4,4S382,157.6,379.6,157.6z"/> <path d="M423.6,177.6c-2.4,0-4-1.6-4-4v-20c0-2.4,1.6-4,4-4s4,1.6,4,4v20C427.6,176,426,177.6,423.6,177.6z"/> <path d="M87.6,193.6c-2.4,0-4-1.6-4-4v-36c0-2.4,1.6-4,4-4h4c2.4,0,4,1.6,4,4s-1.6,4-4,4v32C91.6,192,90,193.6,87.6,193.6z"/> </g>
</svg>