<!DOCTYPE svg PUBLIC "-//W3C//DTD SVG 1.1//EN" "http://www.w3.org/Graphics/SVG/1.1/DTD/svg11.dtd">
<!-- Uploaded to: SVG Repo, www.svgrepo.com, Transformed by: SVG Repo Mixer Tools -->
<svg height="800px" width="800px" version="1.1" id="Layer_1" xmlns="http://www.w3.org/2000/svg" xmlns:xlink="http://www.w3.org/1999/xlink" viewBox="0 0 512.001 512.001" xml:space="preserve" fill="#000000">
<g id="SVGRepo_bgCarrier" stroke-width="0"/>
<g id="SVGRepo_tracerCarrier" stroke-linecap="round" stroke-linejoin="round"/>
<g id="SVGRepo_iconCarrier"> <path style="fill:#1ed254;" d="M417.471,396.771V247.529v-103.54v-27.872c0-46.769-38.265-74.132-85.035-74.132H181.68 c-46.769,0-85.035,27.364-85.035,74.132v45.308v49.426v36.679v149.243h320.826V396.771z"/> <path style="fill:#1ed254;" d="M102.177,246.552h-77.57c-7.566,0-13.756-6.19-13.756-13.756v-2.155 c0-7.566,6.19-13.756,13.756-13.756h77.57c7.566,0,13.756,6.19,13.756,13.756v2.155 C115.932,240.362,109.742,246.552,102.177,246.552z"/> <g> <path style="fill:#1ed254;" d="M185.437,396.472H418.82c15.875,0,28.865,12.989,28.865,28.865v15.819 c0,15.875-12.989,28.865-28.865,28.865H92.256c-15.875,0-28.865-12.989-28.865-28.865v-15.82c0-15.875,12.989-28.865,28.865-28.865 h55.194h37.987V396.472z"/> <path style="fill:#1ed254;" d="M81.573,298.767H39.145c-7.369,0-13.343-5.974-13.343-13.343v-38.872h69.114v38.872 C94.916,292.793,88.942,298.767,81.573,298.767z"/> </g> <path style="fill:#3C66B1;" d="M187.137,123.745c0-9.864,7.997-17.861,17.861-17.861H322.27c9.864,0,17.861,7.997,17.861,17.861 v58.636c0,9.864-7.997,17.861-17.861,17.861H204.998c-9.864,0-17.861-7.997-17.861-17.861v-20.958V123.745z"/> <g style="opacity:0.44;"> <path style="fill:#1ed254;" d="M63.392,433.246v7.909c0,15.875,12.989,28.865,28.865,28.865H418.82 c15.876,0,28.865-12.989,28.865-28.865v-7.909H63.392z"/> </g> <path style="opacity:0.22;fill:#1ed254;enable-background:new ;" d="M418.393,396.472h-1.349V247.529v-103.54v-27.872 c0-46.769-38.265-74.132-85.035-74.132h-52.7c46.769,0,85.035,27.364,85.035,74.132v27.872v103.54v148.943h1.349 c15.875,0,28.864,12.989,28.864,28.865v7.909v7.909c0,0.992-0.051,1.973-0.15,2.941c-0.099,0.967-0.247,1.921-0.44,2.858 c-0.868,4.218-2.665,8.107-5.164,11.443c-0.556,0.741-1.145,1.456-1.768,2.14c-0.311,0.342-0.631,0.677-0.957,1.004 c-0.654,0.654-1.34,1.277-2.052,1.866c-1.427,1.179-2.968,2.224-4.604,3.116c-4.089,2.228-8.768,3.497-13.73,3.497h52.699l0,0 c4.961,0,9.641-1.269,13.73-3.497c1.636-0.892,3.176-1.937,4.604-3.116c0.714-0.589,1.398-1.212,2.052-1.866 c0.327-0.327,0.646-0.662,0.957-1.004c0.622-0.684,1.212-1.398,1.768-2.14c2.499-3.336,4.296-7.226,5.164-11.443 c0.193-0.937,0.341-1.891,0.44-2.858s0.15-1.948,0.15-2.941v-7.909v-7.909C447.258,409.461,434.269,396.472,418.393,396.472z"/> <path style="fill:#1ed254;" d="M473.091,299.744h-42.428c-7.369,0-13.343-5.974-13.343-13.343v-38.872h69.114v38.872 C486.434,293.77,480.46,299.744,473.091,299.744z"/> <polygon style="fill:#FF5023;" points="416.135,221.939 409.279,168.749 494.476,168.749 487.48,222.916 "/> <path style="fill:#FF9478;" d="M501.161,168.749h-98.569V151.95c0-4.397,3.565-7.961,7.961-7.961H493.2 c4.397,0,7.961,3.565,7.961,7.961V168.749z"/> <path style="opacity:0.4;fill:#891C00;enable-background:new ;" d="M493.2,143.989h-13.388c4.397,0,7.961,3.565,7.961,7.961 v16.799h-6.686l-6.972,53.983l13.365,0.183l6.996-54.166h6.686V151.95C501.161,147.553,497.598,143.989,493.2,143.989z"/> <path style="fill:#1ed254;" d="M490.661,247.529h-77.57c-7.566,0-13.756-6.19-13.756-13.756v-2.155 c0-7.566,6.19-13.756,13.756-13.756h77.57c7.566,0,13.756,6.19,13.756,13.756v2.155 C504.418,241.339,498.228,247.529,490.661,247.529z"/> <path d="M496.115,211.011l4.94-34.679h0.108c4.188,0,7.582-3.395,7.582-7.582V151.95c0-8.571-6.973-15.544-15.544-15.544H459.46 V113.63l19.2-12.911c3.475-2.336,4.398-7.048,2.06-10.523c-2.338-3.476-7.049-4.399-10.523-2.061l-22.552,15.165 c-2.094,1.408-3.35,3.768-3.35,6.292v26.815h-19.241v-20.291c0-48.112-38.085-81.715-92.617-81.715H181.68 c-54.531,0-92.616,33.603-92.616,81.715c0,4.187,3.394,7.582,7.582,7.582c4.188,0,7.582-3.395,7.582-7.582 c0-45.973,38.9-66.55,77.451-66.55h150.757c38.552,0,77.452,20.577,77.452,66.55v20.325c-8.262,0.352-14.879,7.164-14.879,15.51 v16.799c0,4.187,3.394,7.582,7.582,7.582h0.107l4.94,34.679c-9.129,2.419-15.886,10.727-15.886,20.606v2.155 c0,10.622,7.81,19.431,17.984,21.048v31.58c0,0.821,0.06,1.627,0.152,2.422v100.067H185.437c-4.188,0-7.582,3.395-7.582,7.582 c0,4.187,3.394,7.582,7.582,7.582h229.941c0.666,0.191,1.367,0.299,2.095,0.299c0.683,0,1.342-0.099,1.971-0.268 c11.445,0.335,20.659,9.727,20.659,21.252v0.327H70.974v-0.327c0-11.735,9.547-21.283,21.282-21.283h55.195 c4.188,0,7.582-3.395,7.582-7.582c0-4.187-3.394-7.582-7.582-7.582h-43.222V253.436c9.196-2.373,16.019-10.713,16.019-20.64v-2.155 c0-9.926-6.823-18.266-16.019-20.64v-48.577c0-4.187-3.394-7.582-7.582-7.582c-4.188,0-7.582,3.395-7.582,7.582v47.878H21.34 C9.573,209.302,0,218.875,0,230.641v2.155c0,10.622,7.81,19.43,17.984,21.047v31.58c0,11.538,9.387,20.925,20.925,20.925h42.428 c2.731,0,5.333-0.541,7.727-1.496v84.184c-18.607,1.624-33.255,17.278-33.255,36.299v15.818c0,20.097,16.349,36.447,36.446,36.447 H418.82c20.097,0,36.447-16.35,36.447-36.447v-15.818c0-17.971-13.077-32.935-30.213-35.903v-82.894 c1.788,0.498,3.664,0.786,5.609,0.786h42.428c11.538,0,20.925-9.387,20.925-20.925v-31.58c10.174-1.618,17.984-10.426,17.984-21.048 v-2.155C512,221.738,505.243,213.43,496.115,211.011z M15.165,232.797v-2.155c0-3.404,2.77-6.174,6.174-6.174h77.57 c3.404,0,6.174,2.77,6.174,6.174v2.155c0,3.404-2.77,6.173-6.174,6.173H94.68H25.566h-4.228 C17.935,238.97,15.165,236.201,15.165,232.797z M87.098,285.424c0,3.176-2.585,5.76-5.76,5.76H38.909c-3.176,0-5.76-2.584-5.76-5.76 v-31.289h53.949V285.424z M418.819,462.438H92.256c-11.734,0-21.282-9.548-21.282-21.283v-0.327h369.128v0.327 C440.102,452.89,430.555,462.438,418.819,462.438z M493.58,151.95v9.217h-83.405v-9.217c0-0.209,0.17-0.379,0.379-0.379h82.647 C493.41,151.571,493.58,151.742,493.58,151.95z M485.737,176.332l-4.835,33.946h-58.049l-4.835-33.946H485.737z M478.851,286.401 c0,3.176-2.585,5.76-5.76,5.76h-42.428c-2.731,0-5.019-1.912-5.609-4.466v-32.584h53.798L478.851,286.401L478.851,286.401z M496.835,233.773c0,3.404-2.77,6.174-6.174,6.174h-4.228H417.32h-4.228c-3.404,0-6.174-2.77-6.174-6.174v-2.155 c0-3.404,2.77-6.174,6.174-6.174h74.384c0.004,0,0.009,0.001,0.014,0.001c0.007,0,0.014-0.001,0.021-0.001h3.149 c3.404,0,6.174,2.77,6.174,6.174v2.155H496.835z"/> <path d="M187.137,153.841c-4.188,0-7.582,3.395-7.582,7.582v20.958c0,14.029,11.413,25.443,25.442,25.443H322.27 c14.029,0,25.443-11.414,25.443-25.443v-58.636c0-14.029-11.414-25.443-25.443-25.443H204.997 c-14.029,0-25.442,11.414-25.442,25.443c0,4.187,3.394,7.582,7.582,7.582c4.188,0,7.582-3.395,7.582-7.582 c0-5.667,4.611-10.279,10.278-10.279H322.27c5.667,0,10.279,4.611,10.279,10.279v58.636c0,5.667-4.611,10.279-10.279,10.279H204.997 c-5.666,0-10.278-4.611-10.278-10.279v-20.958C194.72,157.235,191.326,153.841,187.137,153.841z"/> </g>
</svg>