<!DOCTYPE svg PUBLIC "-//W3C//DTD SVG 1.1//EN" "http://www.w3.org/Graphics/SVG/1.1/DTD/svg11.dtd">
<!-- Uploaded to: SVG Repo, www.svgrepo.com, Transformed by: SVG Repo Mixer Tools -->
<svg height="800px" width="800px" version="1.1" id="Layer_1" xmlns="http://www.w3.org/2000/svg" xmlns:xlink="http://www.w3.org/1999/xlink" viewBox="0 0 512 512" xml:space="preserve" fill="#000000" stroke="#000000">
<g id="SVGRepo_bgCarrier" stroke-width="0"/>
<g id="SVGRepo_tracerCarrier" stroke-linecap="round" stroke-linejoin="round"/>
<g id="SVGRepo_iconCarrier"> <g transform="translate(1 1)"> <g> <path style="fill:#ff0000;" d="M400.067,383H109.933v-51.2c0-18.773,15.36-34.133,34.133-34.133h221.867 c18.773,0,34.133,15.36,34.133,34.133V383z"/> <path style="fill:#ff0000;" d="M109.933,331.8c0-12.8,6.827-23.893,17.92-29.867l2.56-55.467H75.8v102.4 c0,9.387,7.68,17.067,17.067,17.067h17.067V331.8z"/> <path style="fill:#ff0000;" d="M379.587,246.467L383,301.933c10.24,5.973,17.92,17.067,17.92,29.867v34.133h17.067 c9.387,0,17.067-7.68,17.067-17.067v-102.4H379.587z"/> <path style="fill:#ff0000;" d="M144.067,297.667h221.867c5.973,0,11.093,1.707,16.213,4.267l-12.8-232.96 c-1.707-34.133-30.72-61.44-64.853-61.44h-98.987c-34.987,0-63.147,27.307-64.853,61.44l-12.8,232.96 C132.973,299.373,138.093,297.667,144.067,297.667"/> </g> <path style="fill:#ff0000;" d="M370.2,68.973c-1.707-34.133-30.72-61.44-64.853-61.44H280.6c34.987,0,63.147,27.307,64.853,61.44 l12.8,228.693h8.533c5.973,0,11.093,1.707,16.213,4.267L370.2,68.973z"/> <g> <path style="fill:#ff0000;" d="M132.973,212.333H67.267c-5.12,0-8.533,3.413-8.533,8.533v17.067c0,5.12,3.413,8.533,8.533,8.533 h63.147L132.973,212.333z"/> <path style="fill:#ff0000;" d="M377.027,212.333l1.707,34.133h64c5.12,0,8.533-3.413,8.533-8.533v-17.067 c0-5.12-3.413-8.533-8.533-8.533H377.027z"/> </g> <path style="fill:#ff0000;" d="M417.133,246.467v102.4c0,9.387-7.68,17.067-17.067,17.067h17.067 c9.387,0,17.067-7.68,17.067-17.067v-102.4H417.133z"/> <path style="fill:#ff0000;" d="M442.733,212.333h-17.067c5.12,0,8.533,3.413,8.533,8.533v17.067c0,5.12-3.413,8.533-8.533,8.533 h17.067c5.12,0,8.533-3.413,8.533-8.533v-17.067C451.267,215.747,447.853,212.333,442.733,212.333"/> <g> <path style="fill:#ff0000;" d="M92.867,246.467v102.4c0,9.387,7.68,17.067,17.067,17.067H92.867 c-9.387,0-17.067-7.68-17.067-17.067v-102.4H92.867z"/> <path style="fill:#ff0000;" d="M67.267,212.333h17.067c-5.12,0-8.533,3.413-8.533,8.533v17.067c0,5.12,3.413,8.533,8.533,8.533 H67.267c-5.12,0-8.533-3.413-8.533-8.533v-17.067C58.733,215.747,62.147,212.333,67.267,212.333"/> </g> <g> <path style="fill:#ff0000;" d="M348.867,502.467L348.867,502.467c-9.387,0-17.067-7.68-17.067-17.067V383h34.133v102.4 C365.933,494.787,358.253,502.467,348.867,502.467"/> <path style="fill:#ff0000;" d="M178.2,485.4V383h-34.133v102.4c0,9.387,7.68,17.067,17.067,17.067S178.2,494.787,178.2,485.4"/> </g> <path d="M400.067,391.533H109.933c-5.12,0-8.533-3.413-8.533-8.533v-51.2c0-23.893,18.773-42.667,42.667-42.667h221.867 c23.893,0,42.667,18.773,42.667,42.667V383C408.6,388.12,405.187,391.533,400.067,391.533z M118.467,374.467h273.067V331.8 c0-14.507-11.093-25.6-25.6-25.6H144.067c-14.507,0-25.6,11.093-25.6,25.6V374.467z"/> <path d="M130.413,255H67.267c-9.387,0-17.067-7.68-17.067-17.067v-17.067c0-9.387,7.68-17.067,17.067-17.067h65.707 c2.56,0,4.267,0.853,5.973,2.56c1.707,1.707,2.56,4.267,2.56,5.973l-1.707,34.133C138.947,251.587,135.533,255,130.413,255z M67.267,220.867v17.067h55.467l0.853-17.067H67.267z"/> <path d="M442.733,255h-63.147c-4.267,0-8.533-3.413-8.533-7.68l-1.707-34.133c0-2.56,0.853-4.267,2.56-5.973 c1.707-1.707,4.267-2.56,5.973-2.56h64.853c9.387,0,17.067,7.68,17.067,17.067v17.067C459.8,247.32,452.12,255,442.733,255z M387.267,237.933h55.467v-17.067h-56.32L387.267,237.933z"/> <path d="M109.933,374.467H92.867c-14.507,0-25.6-11.093-25.6-25.6v-102.4c0-5.12,3.413-8.533,8.533-8.533h54.613 c2.56,0,4.267,0.853,5.973,2.56c1.707,1.707,2.56,4.267,2.56,5.973l-3.413,55.467c0,2.56-1.707,5.973-4.267,6.827 c-7.68,5.12-12.8,13.653-12.8,23.04v34.133C118.467,371.053,115.053,374.467,109.933,374.467z M84.333,255v93.867 c0,5.12,3.413,8.533,8.533,8.533h8.533v-25.6c0-13.653,6.827-26.453,17.92-34.987L121.88,255H84.333z"/> <path d="M417.133,374.467h-17.067c-5.12,0-8.533-3.413-8.533-8.533V331.8c0-9.387-5.12-17.92-13.653-22.187 c-2.56-1.707-4.267-4.267-4.267-6.827L370.2,247.32c0-2.56,0.853-4.267,2.56-5.973c1.707-1.707,4.267-2.56,5.973-2.56H434.2 c5.12,0,8.533,3.413,8.533,8.533v102.4C442.733,363.373,431.64,374.467,417.133,374.467z M408.6,357.4h8.533 c5.12,0,8.533-3.413,8.533-8.533V255H388.12l2.56,41.813c11.093,7.68,17.92,20.48,17.92,34.987L408.6,357.4L408.6,357.4z"/> <path d="M127.853,310.467c-1.707,0-3.413-0.853-4.267-1.707c-2.56-1.707-4.267-4.267-4.267-7.68l12.8-232.107 C134.68,29.72,166.253-1,205.507-1h98.987c39.253,0,71.68,30.72,73.387,69.973l12.8,232.96c0,3.413-1.707,5.973-4.267,7.68 c-2.56,1.707-5.973,1.707-8.533,0c-3.413-2.56-7.68-3.413-11.947-3.413H144.067c-4.267,0-8.533,0.853-11.947,3.413 C130.413,310.467,128.707,310.467,127.853,310.467z M144.067,289.133h221.867c2.56,0,5.12,0,6.827,0.853l-11.947-220.16 c-1.707-29.867-26.453-53.76-56.32-53.76h-98.987c-29.867,0-54.613,23.893-56.32,53.76l-11.947,220.16 C138.947,289.133,141.507,289.133,144.067,289.133z"/> <path d="M335.213,79.213c-4.267,0-8.533-3.413-8.533-7.68C325.827,59.587,316.44,50.2,304.493,50.2h-98.987 c-11.947,0-21.333,9.387-22.187,21.333c0,5.12-4.267,8.533-9.387,7.68c-5.12,0-8.533-4.267-7.68-9.387 c0.853-20.48,18.773-36.693,39.253-36.693h98.987c21.333,0,38.4,16.213,39.253,37.547 C343.747,74.947,340.333,79.213,335.213,79.213L335.213,79.213z"/> <path d="M348.867,511c-14.507,0-25.6-11.093-25.6-25.6V383c0-5.12,3.413-8.533,8.533-8.533h34.133c5.12,0,8.533,3.413,8.533,8.533 v102.4C374.467,499.907,363.373,511,348.867,511z M340.333,391.533V485.4c0,5.12,3.413,8.533,8.533,8.533 c5.12,0,8.533-3.413,8.533-8.533v-93.867H340.333z"/> <path d="M161.133,511c-14.507,0-25.6-11.093-25.6-25.6V383c0-5.12,3.413-8.533,8.533-8.533H178.2c5.12,0,8.533,3.413,8.533,8.533 v102.4C186.733,499.907,175.64,511,161.133,511z M152.6,391.533V485.4c0,5.12,3.413,8.533,8.533,8.533 c5.12,0,8.533-3.413,8.533-8.533v-93.867H152.6z"/> </g> </g>
</svg>